<svg id="Capa_1" enable-background="new 0 0 512 512" height="512" viewBox="0 0 512 512" width="512" xmlns="http://www.w3.org/2000/svg"><g><path d="m497 402h-81c-8.284 0-15-6.716-15-15v-110c0-5.438 2.943-10.45 7.692-13.1 4.748-2.647 10.558-2.521 15.187.336l81 50c4.427 2.732 7.121 7.563 7.121 12.764v60c0 8.284-6.716 15-15 15z" fill="#d2d0f2"/><path d="m331 145.623c0-42.266-11.084-84.003-32.054-120.699-8.784-15.374-25.24-24.924-42.946-24.924s-34.162 9.55-42.946 24.923c-20.97 36.697-32.054 78.434-32.054 120.7v181.377c0 8.284 6.716 15 15 15h120c8.284 0 15-6.716 15-15z" fill="#fff5f5"/><path d="m298.946 24.924c-8.784-15.374-25.24-24.924-42.946-24.924v342h60c8.284 0 15-6.716 15-15v-181.377c0-42.266-11.084-84.003-32.054-120.699z" fill="#dfdef5"/><path d="m256 342c-8.284 0-15-6.716-15-15v-60c0-8.284 6.716-15 15-15s15 6.716 15 15v60c0 8.284-6.716 15-15 15z" fill="#ff9100"/><path d="m271 327v-60c0-8.284-6.716-15-15-15v90c8.284 0 15-6.716 15-15z" fill="#ff6426"/><path d="m181 327v60c0 8.284 6.716 15 15 15h120c8.284 0 15-6.716 15-15v-60z" fill="#09607d"/><g><path d="m256 327v75h60c8.284 0 15-6.716 15-15v-60z" fill="#07485e"/></g><path d="m96 402h-81c-8.284 0-15-6.716-15-15v-60c0-5.201 2.694-10.032 7.121-12.764l81-50c4.628-2.856 10.439-2.983 15.187-.336 4.749 2.649 7.692 7.662 7.692 13.1v110c0 8.284-6.716 15-15 15z" fill="#dfdef5"/><g><path d="m373.5 212c-8.284 0-15-6.716-15-15v-40c0-8.284 6.716-15 15-15s15 6.716 15 15v40c0 8.284-6.716 15-15 15z" fill="#09607d"/><path d="m388.5 197v-40c0-8.284-6.716-15-15-15v70c8.284 0 15-6.716 15-15z" fill="#07485e"/><path d="m431 239.5c0-31.756-25.744-57.5-57.5-57.5-31.756 0-57.5 25.744-57.5 57.5v117.5c0 8.284 6.716 15 15 15h85c8.284 0 15-6.716 15-15z" fill="#fff5f5"/><path d="m373.5 182v190h42.5c8.284 0 15-6.716 15-15v-117.5c0-31.756-25.744-57.5-57.5-57.5z" fill="#dfdef5"/><g><path d="m385.34 506.209c-6.005 7.721-17.675 7.721-23.681 0l-20.282-26.077c-6.791-8.73-9.66-19.61-8.05-30.575 1.575-10.729 7.614-20.297 16.289-26.803l1.384-1.038h45l1.384 1.038c8.675 6.506 14.714 16.074 16.289 26.803 1.609 10.965-1.26 21.845-8.05 30.575z" fill="#fff68e"/></g><path d="m413.672 449.558c-1.575-10.729-7.614-20.297-16.289-26.803l-1.383-1.038h-22.5v90.283c4.419 0 8.838-1.93 11.84-5.791l20.282-26.076c6.791-8.731 9.66-19.611 8.05-30.575z" fill="#ffde55"/><path d="m316 357v60c0 8.284 6.716 15 15 15h85c8.284 0 15-6.716 15-15v-60z" fill="#09607d"/><path d="m373.5 357v75h42.5c8.284 0 15-6.716 15-15v-60z" fill="#07485e"/></g><g><path d="m138.5 212c-8.284 0-15-6.716-15-15v-40c0-8.284 6.716-15 15-15s15 6.716 15 15v40c0 8.284-6.716 15-15 15z" fill="#09607d"/><path d="m153.5 197v-40c0-8.284-6.716-15-15-15v70c8.284 0 15-6.716 15-15z" fill="#07485e"/><path d="m196 239.5c0-31.756-25.744-57.5-57.5-57.5-31.756 0-57.5 25.744-57.5 57.5v117.5c0 8.284 6.716 15 15 15h85c8.284 0 15-6.716 15-15z" fill="#fff5f5"/><path d="m138.5 182v190h42.5c8.284 0 15-6.716 15-15v-117.5c0-31.756-25.744-57.5-57.5-57.5z" fill="#dfdef5"/><g><path d="m150.34 506.209c-6.005 7.721-17.675 7.721-23.681 0l-20.282-26.077c-6.791-8.73-9.66-19.61-8.05-30.575 1.575-10.729 7.614-20.297 16.289-26.803l1.384-1.038h45l1.384 1.038c8.675 6.506 14.714 16.074 16.289 26.803 1.609 10.965-1.26 21.845-8.05 30.575z" fill="#fff68e"/></g><path d="m178.672 449.558c-1.575-10.729-7.614-20.297-16.289-26.803l-1.383-1.038h-22.5v90.283c4.419 0 8.838-1.93 11.84-5.791l20.282-26.076c6.791-8.731 9.66-19.611 8.05-30.575z" fill="#ffde55"/><path d="m81 357v60c0 8.284 6.716 15 15 15h85c8.284 0 15-6.716 15-15v-60z" fill="#09607d"/><path d="m138.5 357v75h42.5c8.284 0 15-6.716 15-15v-60z" fill="#07485e"/></g><path d="m256 160c-8.284 0-15-6.716-15-15v-40c0-8.284 6.716-15 15-15s15 6.716 15 15v40c0 8.284-6.716 15-15 15z" fill="#ff9100"/><path d="m271 145v-40c0-8.284-6.716-15-15-15v70c8.284 0 15-6.716 15-15z" fill="#ff6426"/></g></svg>